<svg xmlns="http://www.w3.org/2000/svg" width="720" height="420" viewBox="0 0 720 420">
  <rect width="100%" height="100%" fill="white"/>
  <text x="360" y="24" text-anchor="middle" font-size="18" font-family="Arial">Root-cause accuracy by trace condition</text>
  <line x1="75" y1="340" x2="690" y2="340" stroke="#ddd" />
<text x="70" y="345" text-anchor="end" font-size="12">0.00</text>
<line x1="75" y1="265" x2="690" y2="265" stroke="#ddd" />
<text x="70" y="270" text-anchor="end" font-size="12">0.25</text>
<line x1="75" y1="190" x2="690" y2="190" stroke="#ddd" />
<text x="70" y="195" text-anchor="end" font-size="12">0.50</text>
<line x1="75" y1="115" x2="690" y2="115" stroke="#ddd" />
<text x="70" y="120" text-anchor="end" font-size="12">0.75</text>
<line x1="75" y1="40" x2="690" y2="40" stroke="#ddd" />
<text x="70" y="45" text-anchor="end" font-size="12">1.00</text>
  <line x1="80" y1="40" x2="80" y2="340" stroke="#333" />
  <line x1="80" y1="340" x2="690" y2="340" stroke="#333" />
  <text transform="translate(22,190) rotate(-90)" text-anchor="middle" font-size="14">Accuracy</text>
  <rect x="108.975" y="40" width="94.55" height="300" fill="#0072B2" />
<text x="156.25" y="32" text-anchor="middle" font-size="14">1.00</text>
<text transform="translate(156.25,385) rotate(-25)" text-anchor="end" font-size="13">full</text>
<rect x="261.475" y="115" width="94.55" height="225" fill="#E69F00" />
<text x="308.75" y="107" text-anchor="middle" font-size="14">0.75</text>
<text transform="translate(308.75,385) rotate(-25)" text-anchor="end" font-size="13">no_frame</text>
<rect x="413.975" y="190" width="94.55" height="150" fill="#009E73" />
<text x="461.25" y="182" text-anchor="middle" font-size="14">0.50</text>
<text transform="translate(461.25,385) rotate(-25)" text-anchor="end" font-size="13">no_justification</text>
<rect x="566.475" y="340" width="94.55" height="0" fill="#CC79A7" />
<text x="613.75" y="332" text-anchor="middle" font-size="14">0.00</text>
<text transform="translate(613.75,385) rotate(-25)" text-anchor="end" font-size="13">event_only</text>
</svg>
